<?xml version="1.0" encoding="utf-8"?>
<!-- Generator: Adobe Illustrator 21.0.0, SVG Export Plug-In . SVG Version: 6.00 Build 0)  -->
<svg version="1.1" id="Capa_1" xmlns="http://www.w3.org/2000/svg" xmlns:xlink="http://www.w3.org/1999/xlink" x="0px" y="0px"
	 viewBox="0 0 439.4 311.8" style="enable-background:new 0 0 439.4 311.8;" xml:space="preserve">
<style type="text/css">
	.st0{opacity:0.1;enable-background:new    ;}
	.st1{opacity:0.7;clip-path:url(#SVGID_2_);}
	.st2{fill:#2249B6;}
	.st3{opacity:0.7;clip-path:url(#SVGID_4_);}
	.st4{fill:#00A787;}
</style>
<g class="st0">
	<g>
		<g>
			<g>
				<defs>
					<rect id="SVGID_1_" x="0.7" y="67.2" width="439.5" height="244.6"/>
				</defs>
				<clipPath id="SVGID_2_">
					<use xlink:href="#SVGID_1_"  style="overflow:visible;"/>
				</clipPath>
				<g class="st1">
					<polygon class="st2" points="131.5,78.9 141.9,214.1 141.6,214.2 131.2,78.9 					"/>
					<polygon class="st2" points="54.6,156.7 141.8,214 141.7,214.3 54.4,157 					"/>
					<polygon class="st2" points="219.7,204.8 219.8,205 141.8,214.3 141.7,214 					"/>
					<polygon class="st2" points="219.7,204.8 219.8,205 161.6,252.9 161.4,252.7 					"/>
					<polygon class="st2" points="141.9,214.1 161.6,252.8 161.4,252.9 141.6,214.2 					"/>
					<polygon class="st2" points="141.7,214.1 141.8,214.2 78,262.4 77.8,262.2 					"/>
					<polygon class="st2" points="54.6,156.8 78,262.3 77.8,262.3 54.4,156.9 					"/>
					<polygon class="st2" points="54.4,156.8 54.6,156.9 18.3,229.8 18.1,229.7 					"/>
					<polygon class="st2" points="18.3,229.7 46.8,296.8 46.5,296.9 18.1,229.8 					"/>
					<polygon class="st2" points="77.8,262.2 78,262.4 46.8,296.9 46.6,296.7 					"/>
					<polygon class="st2" points="19.3,231.9 78.2,262.2 78.1,262.5 19.2,232.1 					"/>
					<polygon class="st2" points="46.9,293.7 61.1,318.4 60.9,318.5 46.6,293.9 					"/>
					<polygon class="st2" points="46.7,293.7 46.8,293.9 12.7,317.1 12.6,316.9 					"/>
					<polygon class="st2" points="111.8,292.6 111.8,292.9 46.8,293.9 46.8,293.7 					"/>
					<polygon class="st2" points="78,262.2 111.9,292.7 111.7,292.8 77.8,262.4 					"/>
					<polygon class="st2" points="161.5,252.7 161.5,252.9 77.9,262.4 77.9,262.2 					"/>
					<polygon class="st2" points="161.4,252.7 161.6,252.9 111.8,292.9 111.7,292.7 					"/>
					<polygon class="st2" points="161.6,252.7 210.1,289.6 209.9,289.8 161.4,252.9 					"/>
					<polygon class="st2" points="210,289.6 210,289.8 111.8,292.9 111.8,292.6 					"/>
					<polygon class="st2" points="111.9,292.7 121,313.1 120.8,313.2 111.6,292.8 					"/>
					<polygon class="st2" points="209.9,289.6 210.1,289.8 178.4,320 178.2,319.9 					"/>
					<polygon class="st2" points="210.1,289.6 281.5,314.9 281.4,315.2 210,289.8 					"/>
					<polygon class="st2" points="276.9,256.2 277,256.5 210.1,289.8 210,289.6 					"/>
					<polygon class="st2" points="219.8,204.8 277.1,256.3 276.9,256.4 219.7,205 					"/>
					<polygon class="st2" points="219.6,204.9 219.9,204.9 210.2,289.7 209.9,289.7 					"/>
					<polygon class="st2" points="277.1,256.3 336,296.5 335.9,296.7 276.9,256.5 					"/>
					<polygon class="st2" points="335.9,296.5 336,296.7 281.5,315.2 281.4,314.9 					"/>
					<polygon class="st2" points="274.8,255 281.5,315 281.3,315.1 274.6,255 					"/>
					<polygon class="st2" points="336,296.5 389.2,315.2 389.1,315.4 335.9,296.7 					"/>
					<polygon class="st2" points="389,315.2 389.3,315.4 375.3,332.6 375.1,332.4 					"/>
					<polygon class="st2" points="335.8,296.6 336.1,296.6 335.1,326.9 334.8,326.9 					"/>
					<polygon class="st2" points="335.3,222.7 336.1,296.6 335.8,296.6 335.1,222.7 					"/>
					<polygon class="st2" points="335.1,222.6 335.3,222.8 277.1,256.5 276.9,256.2 					"/>
					<polygon class="st2" points="285.6,186.5 285.8,186.6 277.1,256.4 276.9,256.3 					"/>
					<polygon class="st2" points="285.6,186.4 285.7,186.7 219.8,205 219.7,204.8 					"/>
					<polygon class="st2" points="131.5,78.8 219.9,204.8 219.6,205 131.3,79 					"/>
					<polygon class="st2" points="131.5,78.8 285.8,186.4 285.6,186.7 131.3,79 					"/>
					<polygon class="st2" points="353.7,172.7 353.7,172.9 285.7,186.7 285.7,186.4 					"/>
					<polygon class="st2" points="285.8,186.5 335.3,222.6 335.1,222.8 285.6,186.6 					"/>
					<polygon class="st2" points="335.2,222.6 385.4,227.2 385.4,227.4 335.2,222.8 					"/>
					<polygon class="st2" points="385.5,227.3 397.5,260 397.2,260.1 385.2,227.3 					"/>
					<polygon class="st2" points="397.3,259.9 397.4,260.1 336,296.7 335.9,296.5 					"/>
					<polygon class="st2" points="397.2,260 397.5,260.1 389.3,315.3 389,315.3 					"/>
					<polygon class="st2" points="451.8,291.4 451.9,291.6 389.2,315.4 389.1,315.2 					"/>
					<polygon class="st2" points="397.4,259.9 447.7,290.1 447.6,290.3 397.3,260.1 					"/>
					<polygon class="st2" points="433,208.3 433.3,208.5 397.5,260.1 397.3,260 					"/>
					<polygon class="st2" points="433.3,208.3 453.7,238.3 453.5,238.4 433,208.5 					"/>
					<polygon class="st2" points="433.1,208.3 433.2,208.5 385.4,227.4 385.3,227.2 					"/>
					<polygon class="st2" points="353.8,172.8 385.5,227.2 385.2,227.4 353.6,172.9 					"/>
					<path class="st2" d="M384.6,315.2c0.1-2.3,2.1-4.1,4.5-4s4.3,2,4.2,4.3c-0.1,2.3-2.1,4.1-4.5,4
						C386.4,319.4,384.5,317.5,384.6,315.2z"/>
					<path class="st2" d="M331.3,296.2c0.1-2.3,2.1-4.1,4.5-4s4.3,2,4.2,4.3c-0.1,2.3-2.1,4.1-4.5,4S331.2,298.5,331.3,296.2z"/>
					<path class="st2" d="M277.6,313.8c0.1-2.3,2.1-4.1,4.5-4s4.3,2,4.2,4.3c-0.1,2.3-2.1,4.1-4.5,4
						C279.5,318,277.6,316.1,277.6,313.8z"/>
					<path class="st2" d="M204.7,289.3c0.1-2.3,2.1-4.1,4.5-4s4.3,2,4.2,4.3s-2.1,4.1-4.5,4C206.6,293.5,204.7,291.6,204.7,289.3z"
						/>
					<path class="st2" d="M392.3,260.8c0.1-2.3,2.1-4.1,4.5-4s4.3,2,4.2,4.3c-0.1,2.3-2.1,4.1-4.5,4
						C394.1,265,392.3,263.1,392.3,260.8z"/>
					<path class="st2" d="M428.9,209.2c0.1-2.3,2.1-4.1,4.5-4s4.3,2,4.2,4.3c-0.1,2.3-2.1,4.1-4.5,4S428.8,211.5,428.9,209.2z"/>
					<path class="st2" d="M348.9,173.2c0.1-2.3,2.1-4.1,4.5-4s4.3,2,4.2,4.3c-0.1,2.3-2.1,4.1-4.5,4S348.8,175.5,348.9,173.2z"/>
					<path class="st2" d="M330.6,223.9c0.1-2.3,2.1-4.1,4.5-4s4.3,2,4.2,4.3s-2.1,4.1-4.5,4C332.4,228.1,330.5,226.2,330.6,223.9z"
						/>
					<path class="st2" d="M281.1,186.2c0.1-2.3,2.1-4.1,4.5-4s4.3,2,4.2,4.3c-0.1,2.3-2.1,4.1-4.5,4
						C282.9,190.4,281,188.5,281.1,186.2z"/>
					<path class="st2" d="M214.6,206c0.1-2.3,2.1-4.1,4.5-4s4.3,2,4.2,4.3s-2.1,4.1-4.5,4S214.6,208.3,214.6,206z"/>
					<path class="st2" d="M127.3,78.6c0.1-2.3,2.1-4.1,4.5-4s4.3,2,4.2,4.3s-2.1,4.1-4.5,4S127.3,80.9,127.3,78.6z"/>
					<path class="st2" d="M136.7,213.4c0.1-2.3,2.1-4.1,4.5-4s4.3,2,4.2,4.3s-2.1,4.1-4.5,4S136.7,215.7,136.7,213.4z"/>
					<path class="st2" d="M50.4,157.5c0.1-2.3,2.1-4.1,4.5-4s4.3,2,4.2,4.3s-2.1,4.1-4.5,4S50.3,159.8,50.4,157.5z"/>
					<path class="st2" d="M157.1,252.4c0.1-2.3,2.1-4.1,4.5-4s4.3,2,4.2,4.3s-2.1,4.1-4.5,4C158.9,256.6,157,254.7,157.1,252.4z"/>
					<path class="st2" d="M72.8,261.4c0.1-2.3,2.1-4.1,4.5-4s4.3,2,4.2,4.3c-0.1,2.3-2.1,4.1-4.5,4
						C74.6,265.6,72.7,263.7,72.8,261.4z"/>
					<path class="st2" d="M107.7,292.1c0.1-2.3,2.1-4.1,4.5-4s4.3,2,4.2,4.3s-2.1,4.1-4.5,4C109.5,296.3,107.6,294.4,107.7,292.1z"
						/>
					<path class="st2" d="M41.6,294.6c0.1-2.3,2.1-4.1,4.5-4s4.3,2,4.2,4.3s-2.1,4.1-4.5,4C43.4,298.8,41.5,296.9,41.6,294.6z"/>
					<path class="st2" d="M271.6,255.6c0.1-2.3,2.1-4.1,4.5-4s4.3,2,4.2,4.3c-0.1,2.3-2.1,4.1-4.5,4
						C273.5,259.8,271.6,257.9,271.6,255.6z"/>
				</g>
			</g>
		</g>
	</g>
	<g>
		<g>
			<g>
				<defs>
					<rect id="SVGID_3_" x="0.7" y="67.2" width="439.5" height="244.6"/>
				</defs>
				<clipPath id="SVGID_4_">
					<use xlink:href="#SVGID_3_"  style="overflow:visible;"/>
				</clipPath>
				<g class="st3">
					<polygon class="st4" points="253.2,129.8 244.9,237.2 245.1,237.2 253.4,129.8 					"/>
					<polygon class="st4" points="314.2,191.6 245,237.1 245.1,237.2 314.3,191.8 					"/>
					<polygon class="st4" points="183.2,229.7 183.1,229.9 245,237.3 245,237.1 					"/>
					<polygon class="st4" points="183.2,229.7 183.1,229.9 229.3,267.9 229.5,267.8 					"/>
					<polygon class="st4" points="244.9,237.1 229.3,267.8 229.5,267.9 245.1,237.2 					"/>
					<polygon class="st4" points="245.1,237.1 245,237.2 295.6,275.5 295.8,275.3 					"/>
					<polygon class="st4" points="314.2,191.7 295.6,275.4 295.8,275.4 314.4,191.7 					"/>
					<polygon class="st4" points="314.4,191.7 314.2,191.7 343,249.6 343.2,249.5 					"/>
					<polygon class="st4" points="343,249.5 320.4,302.7 320.6,302.8 343.2,249.6 					"/>
					<polygon class="st4" points="295.8,275.3 295.6,275.4 320.4,302.8 320.6,302.7 					"/>
					<polygon class="st4" points="342.2,251.2 295.5,275.3 295.6,275.5 342.3,251.4 					"/>
					<polygon class="st4" points="320.3,300.3 309,319.9 309.2,320 320.5,300.4 					"/>
					<polygon class="st4" points="320.5,300.3 320.4,300.5 347.4,318.9 347.6,318.7 					"/>
					<polygon class="st4" points="268.8,299.4 268.8,299.6 320.4,300.5 320.4,300.3 					"/>
					<polygon class="st4" points="295.6,275.3 268.8,299.5 268.9,299.6 295.8,275.4 					"/>
					<polygon class="st4" points="229.4,267.8 229.4,268 295.7,275.5 295.7,275.3 					"/>
					<polygon class="st4" points="229.5,267.8 229.3,267.9 268.8,299.6 268.9,299.5 					"/>
					<polygon class="st4" points="229.3,267.8 190.8,297 190.9,297.2 229.5,267.9 					"/>
					<polygon class="st4" points="190.9,297 190.9,297.2 268.8,299.6 268.8,299.4 					"/>
					<polygon class="st4" points="268.7,299.5 261.5,315.7 261.7,315.8 268.9,299.6 					"/>
					<polygon class="st4" points="190.9,297 190.8,297.2 216,321.2 216.1,321 					"/>
					<polygon class="st4" points="190.8,297 134.2,317.1 134.2,317.3 190.9,297.2 					"/>
					<polygon class="st4" points="137.8,270.6 137.7,270.7 190.8,297.2 190.9,297 					"/>
					<polygon class="st4" points="183.1,229.7 137.7,270.6 137.8,270.7 183.2,229.9 					"/>
					<polygon class="st4" points="183.2,229.8 183,229.8 190.8,297.1 191,297.1 					"/>
					<polygon class="st4" points="137.7,270.6 90.9,302.5 91,302.7 137.8,270.7 					"/>
					<polygon class="st4" points="91,302.5 90.9,302.7 134.2,317.3 134.2,317.1 					"/>
					<polygon class="st4" points="139.4,269.5 134.1,317.2 134.3,317.2 139.6,269.6 					"/>
					<polygon class="st4" points="90.9,302.5 48.7,317.3 48.8,317.5 91,302.7 					"/>
					<polygon class="st4" points="48.8,317.4 48.6,317.5 59.7,331.1 59.9,331 					"/>
					<polygon class="st4" points="91,302.6 90.8,302.6 91.6,326.6 91.8,326.6 					"/>
					<polygon class="st4" points="91.4,244 90.8,302.6 91,302.6 91.6,244 					"/>
					<polygon class="st4" points="91.6,243.9 91.5,244.1 137.7,270.7 137.8,270.6 					"/>
					<polygon class="st4" points="130.9,215.3 130.7,215.3 137.6,270.7 137.8,270.6 					"/>
					<polygon class="st4" points="130.9,215.2 130.8,215.4 183.1,229.9 183.2,229.7 					"/>
					<polygon class="st4" points="253.2,129.8 183.1,229.8 183.2,229.9 253.4,129.9 					"/>
					<polygon class="st4" points="253.2,129.8 130.8,215.2 130.9,215.3 253.3,129.9 					"/>
					<polygon class="st4" points="76.9,204.3 76.8,204.5 130.8,215.4 130.8,215.2 					"/>
					<polygon class="st4" points="130.8,215.2 91.5,243.9 91.6,244 130.9,215.3 					"/>
					<polygon class="st4" points="91.5,243.9 51.7,247.5 51.7,247.7 91.5,244.1 					"/>
					<polygon class="st4" points="51.6,247.6 42.1,273.5 42.3,273.6 51.8,247.6 					"/>
					<polygon class="st4" points="42.3,273.5 42.1,273.7 90.9,302.7 91,302.5 					"/>
					<polygon class="st4" points="42.3,273.6 42.1,273.6 48.6,317.5 48.8,317.4 					"/>
					<polygon class="st4" points="-1,298.4 -1.1,298.6 48.7,317.5 48.8,317.3 					"/>
					<polygon class="st4" points="42.1,273.5 2.2,297.4 2.3,297.6 42.3,273.7 					"/>
					<polygon class="st4" points="13.9,232.5 13.7,232.7 42.1,273.6 42.3,273.5 					"/>
					<polygon class="st4" points="13.7,232.5 -2.5,256.3 -2.4,256.4 13.9,232.7 					"/>
					<polygon class="st4" points="13.8,232.5 13.8,232.7 51.7,247.7 51.8,247.5 					"/>
					<polygon class="st4" points="76.8,204.3 51.6,247.5 51.8,247.6 76.9,204.4 					"/>
					<path class="st4" d="M52.3,317.3c-0.1-1.8-1.7-3.2-3.6-3.2c-1.9,0.1-3.4,1.6-3.3,3.4c0.1,1.8,1.7,3.2,3.6,3.2
						S52.4,319.2,52.3,317.3z"/>
					<path class="st4" d="M94.6,302.3c-0.1-1.8-1.7-3.2-3.6-3.2c-1.9,0.1-3.4,1.6-3.3,3.4s1.7,3.2,3.6,3.2
						C93.2,305.6,94.7,304.1,94.6,302.3z"/>
					<path class="st4" d="M137.2,316.2c-0.1-1.8-1.7-3.2-3.6-3.2c-1.9,0.1-3.4,1.6-3.3,3.4c0.1,1.8,1.7,3.2,3.6,3.2
						S137.3,318.1,137.2,316.2z"/>
					<path class="st4" d="M195,296.8c-0.1-1.8-1.7-3.2-3.6-3.2c-1.9,0.1-3.4,1.6-3.3,3.4c0.1,1.8,1.7,3.2,3.6,3.2
						C193.6,300.2,195.1,298.6,195,296.8z"/>
					<path class="st4" d="M46.2,274.2c-0.1-1.8-1.7-3.2-3.6-3.2s-3.4,1.6-3.3,3.4c0.1,1.8,1.7,3.2,3.6,3.2
						C44.7,277.5,46.2,276,46.2,274.2z"/>
					<path class="st4" d="M17.2,233.2c-0.1-1.8-1.7-3.2-3.6-3.2s-3.4,1.6-3.3,3.4s1.7,3.2,3.6,3.2C15.7,236.5,17.2,235,17.2,233.2z"
						/>
					<path class="st4" d="M80.7,204.7c-0.1-1.8-1.7-3.2-3.6-3.2s-3.4,1.6-3.3,3.4s1.7,3.2,3.6,3.2C79.2,208,80.7,206.5,80.7,204.7z"
						/>
					<path class="st4" d="M95.2,244.9c-0.1-1.8-1.7-3.2-3.6-3.2c-1.9,0.1-3.4,1.6-3.3,3.4s1.7,3.2,3.6,3.2S95.3,246.7,95.2,244.9z"
						/>
					<path class="st4" d="M134.5,215c-0.1-1.8-1.7-3.2-3.6-3.2c-1.9,0.1-3.4,1.6-3.3,3.4s1.7,3.2,3.6,3.2
						C133,218.3,134.5,216.8,134.5,215z"/>
					<path class="st4" d="M187.2,230.7c-0.1-1.8-1.7-3.2-3.6-3.2c-1.9,0.1-3.4,1.6-3.3,3.4s1.7,3.2,3.6,3.2
						C185.8,234,187.3,232.5,187.2,230.7z"/>
					<path class="st4" d="M256.5,129.6c-0.1-1.8-1.7-3.2-3.6-3.2c-1.9,0.1-3.4,1.6-3.3,3.4s1.7,3.2,3.6,3.2
						C255,133,256.5,131.4,256.5,129.6z"/>
					<path class="st4" d="M249,236.6c-0.1-1.8-1.7-3.2-3.6-3.2c-1.9,0.1-3.4,1.6-3.3,3.4s1.7,3.2,3.6,3.2
						C247.6,239.9,249.1,238.4,249,236.6z"/>
					<path class="st4" d="M317.6,192.2c-0.1-1.8-1.7-3.2-3.6-3.2c-1.9,0.1-3.4,1.6-3.3,3.4s1.7,3.2,3.6,3.2
						C316.1,195.6,317.6,194,317.6,192.2z"/>
					<path class="st4" d="M232.8,267.5c-0.1-1.8-1.7-3.2-3.6-3.2c-1.9,0.1-3.4,1.6-3.3,3.4c0.1,1.8,1.7,3.2,3.6,3.2
						C231.4,270.9,232.9,269.3,232.8,267.5z"/>
					<path class="st4" d="M299.8,274.6c-0.1-1.8-1.7-3.2-3.6-3.2c-1.9,0.1-3.4,1.6-3.3,3.4s1.7,3.2,3.6,3.2
						C298.3,278,299.8,276.5,299.8,274.6z"/>
					<path class="st4" d="M272.1,299c-0.1-1.8-1.7-3.2-3.6-3.2c-1.9,0.1-3.4,1.6-3.3,3.4s1.7,3.2,3.6,3.2
						C270.6,302.3,272.1,300.8,272.1,299z"/>
					<path class="st4" d="M324.5,301c-0.1-1.8-1.7-3.2-3.6-3.2c-1.9,0.1-3.4,1.6-3.3,3.4s1.7,3.2,3.6,3.2
						C323.1,304.3,324.6,302.8,324.5,301z"/>
					<path class="st4" d="M142,270.1c-0.1-1.8-1.7-3.2-3.6-3.2c-1.9,0.1-3.4,1.6-3.3,3.4c0.1,1.8,1.7,3.2,3.6,3.2
						C140.5,273.4,142,271.9,142,270.1z"/>
				</g>
			</g>
		</g>
	</g>
</g>
</svg>
